<svg width="25" height="25" viewBox="0 0 25 25" fill="none" xmlns="http://www.w3.org/2000/svg">
<g clip-path="url(#clip0_6126_15927)">
<path d="M24.9992 12.5765C24.9992 5.6296 19.4023 -0.00164795 12.4992 -0.00164795C5.59297 -8.54492e-05 -0.00390625 5.6296 -0.00390625 12.578C-0.00390625 18.8546 4.56797 24.0577 10.543 25.0015V16.2124H7.37109V12.578H10.5461V9.8046C10.5461 6.65304 12.4133 4.91241 15.268 4.91241C16.6367 4.91241 18.0664 5.15773 18.0664 5.15773V8.25148H16.4898C14.9383 8.25148 14.4539 9.22179 14.4539 10.2171V12.5765H17.9195L17.3664 16.2109H14.4523V24.9999C20.4273 24.0562 24.9992 18.853 24.9992 12.5765Z" fill="white"/>
</g>
<defs>
<clipPath id="clip0_6126_15927">
<rect width="25" height="25" fill="white"/>
</clipPath>
</defs>
</svg>
