<svg width="44" height="44" viewBox="0 0 44 44" fill="none" xmlns="http://www.w3.org/2000/svg">
<rect width="44" height="44" rx="22" fill="white"/>
<path fill-rule="evenodd" clip-rule="evenodd" d="M10.75 14.5C10.75 13.6716 11.4216 13 12.25 13H31.75C32.5784 13 33.25 13.6716 33.25 14.5V25C33.25 25.8284 32.5784 26.5 31.75 26.5H12.25C11.4216 26.5 10.75 25.8284 10.75 25V14.5ZM12.25 18.1871V21.3129C12.5827 21.3692 12.9088 21.4628 13.2221 21.5925C13.768 21.8187 14.2641 22.1502 14.682 22.568C15.0998 22.9859 15.4313 23.482 15.6575 24.0279C15.7872 24.3412 15.8808 24.6673 15.9371 25H28.0629C28.2176 24.0848 28.653 23.233 29.318 22.568C29.983 21.903 30.8348 21.4676 31.75 21.3129V18.1871C30.8348 18.0324 29.983 17.597 29.318 16.932C28.653 16.267 28.2176 15.4152 28.0629 14.5H15.9371C15.8808 14.8327 15.7872 15.1588 15.6575 15.4721C15.4313 16.018 15.0998 16.5141 14.682 16.932C14.2641 17.3498 13.768 17.6813 13.2221 17.9075C12.9088 18.0372 12.5827 18.1308 12.25 18.1871ZM14.4047 14.5C14.3698 14.6353 14.3254 14.7683 14.2716 14.8981C14.1209 15.262 13.8999 15.5927 13.6213 15.8713C13.3427 16.1499 13.012 16.3709 12.6481 16.5216C12.5183 16.5754 12.3853 16.6198 12.25 16.6547V14.5H14.4047ZM29.5953 14.5C29.7281 15.0145 29.9965 15.4892 30.3787 15.8713C30.7608 16.2535 31.2355 16.5219 31.75 16.6547V14.5H29.5953ZM31.75 22.8453C31.2355 22.9781 30.7608 23.2465 30.3787 23.6287C29.9965 24.0108 29.7281 24.4855 29.5953 25H31.75V22.8453ZM14.4047 25C14.3698 24.8647 14.3254 24.7317 14.2716 24.6019C14.1209 24.238 13.8999 23.9073 13.6213 23.6287C13.3427 23.3501 13.012 23.1291 12.6481 22.9784C12.5183 22.9246 12.3853 22.8802 12.25 22.8453V25H14.4047ZM22 16.75C20.3431 16.75 19 18.0931 19 19.75C19 21.4069 20.3431 22.75 22 22.75C23.6569 22.75 25 21.4069 25 19.75C25 18.0931 23.6569 16.75 22 16.75ZM17.5 19.75C17.5 17.2647 19.5147 15.25 22 15.25C24.4853 15.25 26.5 17.2647 26.5 19.75C26.5 22.2353 24.4853 24.25 22 24.25C19.5147 24.25 17.5 22.2353 17.5 19.75ZM12.25 28C12.25 27.5858 12.5858 27.25 13 27.25H31C31.4142 27.25 31.75 27.5858 31.75 28C31.75 28.4142 31.4142 28.75 31 28.75H13C12.5858 28.75 12.25 28.4142 12.25 28ZM13.75 30.25C13.75 29.8358 14.0858 29.5 14.5 29.5H29.5C29.9142 29.5 30.25 29.8358 30.25 30.25C30.25 30.6642 29.9142 31 29.5 31H14.5C14.0858 31 13.75 30.6642 13.75 30.25Z" fill="#0F7863"/>
</svg>
