<svg width="26" height="26" viewBox="0 0 26 26" fill="none" xmlns="http://www.w3.org/2000/svg">
<g clip-path="url(#clip0_6126_15929)">
<path d="M12.9995 0.52002C6.10693 0.52002 0.519531 6.10742 0.519531 13C0.519531 19.8926 6.10693 25.48 12.9995 25.48C19.8921 25.48 25.4795 19.8926 25.4795 13C25.4795 6.10742 19.8921 0.52002 12.9995 0.52002ZM18.076 10.7432C18.0812 10.8498 18.0825 10.9564 18.0825 11.0604C18.0825 14.3104 15.6112 18.0557 11.0898 18.0557C9.75381 18.0579 8.44559 17.6742 7.32243 16.9507C7.51353 16.9741 7.70983 16.9832 7.90873 16.9832C9.06053 16.9832 10.12 16.5919 10.9611 15.9315C10.4486 15.9215 9.9519 15.7517 9.54038 15.446C9.12885 15.1403 8.82296 14.7138 8.66533 14.2259C9.03343 14.2959 9.41264 14.2812 9.77423 14.183C9.21789 14.0705 8.71759 13.7691 8.35815 13.3298C7.99871 12.8905 7.80227 12.3404 7.80213 11.7728V11.7429C8.13363 11.9262 8.51323 12.038 8.91623 12.051C8.39467 11.7038 8.02545 11.1705 7.88409 10.5601C7.74273 9.94969 7.8399 9.30835 8.15573 8.76722C8.77317 9.52642 9.54317 10.1475 10.4159 10.5902C11.2886 11.033 12.2445 11.2875 13.2218 11.3373C13.0976 10.8099 13.1511 10.2562 13.3739 9.76237C13.5968 9.2685 13.9766 8.86211 14.4543 8.60636C14.932 8.35062 15.4808 8.25986 16.0154 8.34819C16.55 8.43653 17.0404 8.699 17.4104 9.09482C17.9606 8.98598 18.4881 8.78419 18.9704 8.49812C18.7871 9.06769 18.4032 9.55135 17.8901 9.85922C18.3774 9.80053 18.8533 9.66952 19.3019 9.47052C18.9724 9.96438 18.5572 10.3954 18.076 10.7432Z" fill="white"/>
</g>
<defs>
<clipPath id="clip0_6126_15929">
<rect width="26" height="26" fill="white"/>
</clipPath>
</defs>
</svg>
