<svg width="27" height="27" viewBox="0 0 27 27" fill="none" xmlns="http://www.w3.org/2000/svg">
<g clip-path="url(#clip0_6126_15932)">
<path d="M13.4991 0.539978C6.34136 0.539978 0.539062 6.34228 0.539062 13.5C0.539062 20.6577 6.34136 26.46 13.4991 26.46C20.6568 26.46 26.4591 20.6577 26.4591 13.5C26.4591 6.34228 20.6568 0.539978 13.4991 0.539978ZM10.3266 18.8716H7.70216V10.426H10.3266V18.8716ZM8.99816 9.38923C8.16926 9.38923 7.63331 8.80198 7.63331 8.07568C7.63331 7.33453 8.18546 6.76483 9.03191 6.76483C9.87836 6.76483 10.3968 7.33453 10.413 8.07568C10.413 8.80198 9.87836 9.38923 8.99816 9.38923ZM19.9116 18.8716H17.2872V14.1912C17.2872 13.1017 16.9065 12.3619 15.9574 12.3619C15.2325 12.3619 14.8018 12.8628 14.6115 13.3447C14.5413 13.5162 14.5237 13.7592 14.5237 14.0008V18.8703H11.898V13.1193C11.898 12.0649 11.8642 11.1834 11.8291 10.4247H14.1093L14.2294 11.5978H14.2821C14.6277 11.047 15.4741 10.2343 16.8903 10.2343C18.6169 10.2343 19.9116 11.3913 19.9116 13.878V18.8716Z" fill="white"/>
</g>
<defs>
<clipPath id="clip0_6126_15932">
<rect width="27" height="27" fill="white"/>
</clipPath>
</defs>
</svg>
