<svg width="227" height="65" viewBox="0 0 227 65" fill="none" xmlns="http://www.w3.org/2000/svg">
<path d="M56.1582 10.2607L19.5351 2.41287C15.0166 1.44461 10.5686 4.32271 9.60031 8.8413L1.75252 45.4643C0.78425 49.9829 3.66235 54.4309 8.18094 55.3992L44.804 63.2469C49.3226 64.2152 53.7705 61.3371 54.7388 56.8185L62.5866 20.1955C63.5549 15.6769 60.6768 11.2289 56.1582 10.2607Z" fill="white"/>
<path d="M16.5873 35.5388C17.9702 36.285 19.5039 36.7073 21.0731 36.7737C22.3528 36.7737 22.9202 36.4432 22.9202 35.7371C22.9202 35.0311 22.4689 34.7217 20.6931 34.0526C16.9989 32.6644 15.9144 30.5594 15.9435 28.6582C15.9435 25.1438 18.7748 22.5285 23.2289 22.5259C24.8982 22.5027 26.5541 22.8269 28.092 23.4778L27.0919 27.8278C25.9901 27.2804 24.785 26.9731 23.5561 26.9261C22.4478 26.9261 21.8436 27.3042 21.8436 27.9997C21.8436 28.6026 22.3713 28.9675 24.3371 29.7238C27.6645 31.0063 28.8229 32.8812 28.8229 35.2453C28.8229 38.7623 26.1605 41.1924 21.1021 41.1951C18.8909 41.1951 16.7747 40.7032 15.5371 40.0051L16.5873 35.5388Z" fill="#0F7863"/>
<path d="M31.6099 28.9022C31.6099 26.6574 31.5331 24.6452 31.459 22.9001H36.8781L37.1719 25.1H37.2434C38.3765 23.4739 40.1555 22.5273 42.4269 22.5247C46.3264 22.5247 49.3099 26.2528 49.3099 31.7234C49.3099 38.2173 45.5004 41.2422 41.8312 41.2422C40.0046 41.2422 38.6015 40.4489 37.9767 39.5605H37.9026V48.0428H31.6231L31.6099 28.9022ZM37.892 33.3971C37.8845 33.8117 37.938 34.225 38.0508 34.624C38.1686 35.1007 38.4394 35.5257 38.8218 35.8342C39.2043 36.1426 39.6774 36.3175 40.1687 36.3321C41.953 36.3321 42.959 34.5024 42.9563 31.9403C42.9563 29.1693 41.998 27.5273 40.2322 27.5299C39.7083 27.5437 39.2045 27.734 38.8027 28.0701C38.4008 28.4061 38.1247 28.8681 38.0191 29.3808C37.9168 29.6947 37.8693 30.0238 37.8788 30.3538L37.892 33.3971Z" fill="#0F7863"/>
<path d="M69.8455 42.165C70.8093 42.6826 71.8774 42.9758 72.9703 43.0229C73.8734 43.0229 74.2572 42.7972 74.2572 42.305C74.2572 41.8128 73.9457 41.6005 72.7039 41.14C70.13 40.1736 69.3759 38.7151 69.3895 37.3966C69.3895 34.9627 71.3673 33.1565 74.474 33.1565C75.6366 33.1416 76.7897 33.3675 77.8607 33.8202L77.1743 36.8366C76.4065 36.4593 75.5682 36.247 74.7133 36.2135C73.9412 36.2135 73.5167 36.4709 73.5167 36.954C73.5167 37.4372 73.8734 37.6223 75.2552 38.1507C77.5717 39.0538 78.3709 40.3407 78.3845 41.9753C78.3845 44.4137 76.524 46.0935 72.9974 46.0935C71.659 46.1259 70.3318 45.8429 69.123 45.2672L69.8455 42.165Z" fill="white"/>
<path d="M85.1945 29.9233V33.4319H87.7457V36.5928H85.1945V40.58C85.1945 42.0295 85.6189 42.5579 86.5807 42.5579C86.9274 42.5591 87.2736 42.5288 87.6148 42.4676V45.8091C86.7707 46.0308 85.8999 46.1341 85.0274 46.1161C83.9445 46.1601 82.8854 45.7904 82.0652 45.0821C81.3066 44.346 80.9002 43.1855 80.9002 41.2438V36.5928H79.3965V33.4319H80.9047V30.9122L85.1945 29.9233Z" fill="white"/>
<path d="M101.205 41.7041C101.205 43.3252 101.259 44.7431 101.309 45.863H97.5426L97.3394 44.3186H97.2626C96.8743 44.8932 96.3468 45.3602 95.7294 45.676C95.112 45.9918 94.4247 46.1462 93.7315 46.1249C91.0492 46.1249 89.6133 44.3412 89.6133 40.783V33.4316H93.9889V40.1643C93.9889 41.7222 94.4404 42.5982 95.4203 42.5982C95.6982 42.5956 95.9686 42.5075 96.1948 42.346C96.421 42.1844 96.592 41.9572 96.6846 41.6951C96.7933 41.4479 96.8443 41.1792 96.8337 40.9094V33.4316H101.205V41.7041Z" fill="white"/>
<path d="M115.602 28.0132V41.8985C115.602 43.3751 115.652 44.8743 115.701 45.8451H111.859L111.669 44.2647H111.619C111.261 44.8414 110.757 45.3141 110.159 45.6358C109.561 45.9575 108.889 46.1168 108.21 46.098C105.315 46.098 103.311 43.3887 103.311 39.6814C103.311 35.4593 105.722 33.1383 108.431 33.1383C109.754 33.1383 110.721 33.5899 111.186 34.3259H111.235V28.0132H115.602ZM111.235 38.5977C111.241 38.3923 111.229 38.1868 111.199 37.9835C111.147 37.606 110.963 37.2592 110.679 37.0046C110.396 36.75 110.031 36.6041 109.65 36.5927C108.296 36.5927 107.7 37.979 107.7 39.6724C107.7 41.6818 108.544 42.6391 109.637 42.6391C109.991 42.6403 110.335 42.5178 110.608 42.2927C110.882 42.0677 111.069 41.7542 111.136 41.4063C111.2 41.1403 111.229 40.867 111.222 40.5935L111.235 38.5977Z" fill="white"/>
<path d="M121.845 41.2435C121.963 42.273 123.254 42.8646 124.83 42.8646C125.9 42.8762 126.966 42.7239 127.991 42.413L128.537 45.3797C127.136 45.883 125.655 46.1263 124.166 46.0977C120.025 46.0977 117.695 43.7587 117.695 39.8256C117.695 36.5157 119.714 33.1606 123.805 33.1606C127.44 33.1606 129.187 35.7887 129.187 39.4328C129.197 40.0385 129.145 40.6435 129.034 41.239L121.845 41.2435ZM125.173 38.2677C125.173 37.4008 124.875 36.0822 123.57 36.0822C122.265 36.0822 121.859 37.3917 121.804 38.2677H125.173Z" fill="white"/>
<path d="M131.146 37.568C131.146 36.0147 131.097 34.5968 131.047 33.4092H134.808L135.012 34.949H135.088C135.489 34.3847 136.02 33.9257 136.637 33.6112C137.253 33.2967 137.936 33.136 138.629 33.1428C141.446 33.1428 142.801 35.1748 142.801 38.3628V45.8496H138.425V38.8053C138.425 37.5455 138.014 36.7101 137.016 36.7101C136.716 36.7128 136.423 36.8097 136.18 36.987C135.937 37.1644 135.756 37.4134 135.662 37.699C135.549 38.0161 135.499 38.3518 135.513 38.6879V45.8631H131.146V37.568Z" fill="white"/>
<path d="M150.142 29.9233V33.4319H152.688V36.5928H150.142V40.58C150.142 42.0295 150.562 42.5579 151.528 42.5579C151.87 42.557 152.212 42.5253 152.548 42.463V45.8046C151.706 46.0263 150.837 46.1297 149.966 46.1116C148.881 46.1558 147.821 45.7862 146.999 45.0776C146.24 44.3415 145.838 43.181 145.838 41.2393V36.5928H144.33V33.4319H145.838V30.9122L150.142 29.9233Z" fill="white"/>
<path d="M159.323 37.5684C159.323 36.015 159.268 34.6197 159.219 33.4096H162.985L163.188 34.9358H163.238C163.644 34.3616 164.187 33.898 164.818 33.5873C165.449 33.2766 166.147 33.1285 166.85 33.1567C169.559 33.1567 171.623 35.7441 171.623 39.5327C171.623 44.0482 168.968 46.1163 166.421 46.1163C165.915 46.1406 165.411 46.0481 164.946 45.8461C164.482 45.644 164.07 45.3379 163.743 44.9513H163.694V50.8216H159.323V37.5684ZM163.685 40.6932C163.679 40.9814 163.715 41.269 163.793 41.5466C163.875 41.8785 164.064 42.1742 164.331 42.388C164.598 42.6018 164.928 42.7219 165.27 42.7297C166.511 42.7297 167.207 41.4608 167.207 39.6907C167.207 37.7716 166.548 36.6337 165.319 36.6337C164.955 36.6425 164.604 36.7746 164.325 37.0083C164.045 37.242 163.853 37.5636 163.779 37.9206C163.71 38.1379 163.678 38.3654 163.685 38.5934V40.6932Z" fill="white"/>
<path d="M180.442 45.8634L180.211 44.739H180.134C179.727 45.1967 179.221 45.5563 178.655 45.7909C178.089 46.0255 177.477 46.129 176.865 46.0937C176.348 46.1106 175.833 46.0214 175.352 45.8317C174.871 45.642 174.434 45.3558 174.067 44.9907C173.701 44.6256 173.413 44.1894 173.222 43.7089C173.031 43.2284 172.94 42.7138 172.955 42.1968C172.955 38.8552 175.967 37.4193 179.773 37.4103V37.2613C179.773 36.6968 179.322 36.1504 177.845 36.1504C176.696 36.1648 175.569 36.4676 174.567 37.031L173.808 34.2268C175.326 33.4784 177.002 33.1037 178.694 33.134C182.993 33.134 184.158 35.7305 184.158 38.6249V42.8605C184.14 43.8578 184.206 44.8548 184.357 45.8408L180.442 45.8634ZM179.909 40.1106C178.265 40.1106 177.199 40.6208 177.199 41.7768C177.182 41.9444 177.201 42.1138 177.256 42.2732C177.311 42.4327 177.399 42.5784 177.515 42.7003C177.632 42.8222 177.773 42.9174 177.93 42.9794C178.087 43.0414 178.255 43.0686 178.423 43.0592C178.74 43.055 179.048 42.9542 179.306 42.7703C179.565 42.5863 179.761 42.3279 179.868 42.0297C179.915 41.8346 179.934 41.6341 179.927 41.4336L179.909 40.1106Z" fill="white"/>
<path d="M198.513 28.0132V41.8985C198.513 43.3751 198.562 44.8743 198.612 45.8451H194.769L194.58 44.2647H194.539C194.181 44.8411 193.679 45.3136 193.081 45.6353C192.484 45.9569 191.813 46.1165 191.134 46.098C188.235 46.098 186.23 43.3887 186.23 39.6814C186.23 35.4593 188.642 33.1383 191.351 33.1383C192.674 33.1383 193.641 33.5899 194.106 34.3259H194.16V28.0132H198.513ZM194.151 38.5977C194.157 38.3921 194.143 38.1865 194.11 37.9835C194.065 37.6025 193.886 37.25 193.605 36.9893C193.323 36.7286 192.958 36.5768 192.575 36.5611C191.22 36.5611 190.624 37.9474 190.624 39.6408C190.624 41.6502 191.469 42.6075 192.561 42.6075C192.916 42.6087 193.259 42.4862 193.533 42.2611C193.807 42.0361 193.993 41.7226 194.06 41.3747C194.126 41.1088 194.156 40.8356 194.151 40.5619V38.5977Z" fill="white"/>
<path d="M212.869 28.0132V41.8985C212.869 43.3751 212.919 44.8743 212.969 45.8451H209.126L208.936 44.2647H208.887C208.529 44.8411 208.026 45.3136 207.429 45.6353C206.831 45.9569 206.16 46.1165 205.482 46.098C202.583 46.098 200.578 43.3887 200.578 39.6814C200.578 35.4593 202.994 33.1383 205.699 33.1383C207.022 33.1383 207.988 33.5899 208.453 34.3259H208.507V28.0132H212.869ZM208.507 38.5977C208.514 38.3921 208.5 38.1865 208.467 37.9835C208.422 37.6025 208.243 37.25 207.961 36.9893C207.68 36.7286 207.315 36.5768 206.932 36.5611C205.577 36.5611 204.981 37.9474 204.981 39.6408C204.981 41.6502 205.825 42.6075 206.918 42.6075C207.272 42.6087 207.616 42.4862 207.89 42.2611C208.163 42.0361 208.35 41.7226 208.417 41.3747C208.482 41.1088 208.513 40.8356 208.507 40.5619V38.5977Z" fill="white"/>
<path d="M219.13 33.4316L220.485 39.207C220.638 39.8799 220.819 40.7017 220.936 41.3203H221.013C221.144 40.6881 221.27 39.8663 221.388 39.2341L222.449 33.4316H227.001L224.291 42.0609C222.828 46.319 221.726 48.2833 220.399 49.5657C219.352 50.5724 218.016 51.2248 216.579 51.4307L215.585 47.7189C216.133 47.607 216.661 47.4153 217.152 47.1499C217.685 46.8793 218.143 46.4805 218.484 45.9894C218.61 45.8332 218.685 45.6428 218.701 45.443C218.693 45.2343 218.64 45.0296 218.547 44.8425L214.316 33.4316H219.13Z" fill="white"/>
</svg>
