<svg width="184" height="53" viewBox="0 0 184 53" fill="none" xmlns="http://www.w3.org/2000/svg">
<path d="M45.5211 7.78242L15.835 1.42112C12.1723 0.636258 8.56687 2.9692 7.782 6.6319L1.42071 36.3179C0.635848 39.9806 2.96879 43.5861 6.63149 44.3709L36.3175 50.7322C39.9802 51.5171 43.5857 49.1842 44.3705 45.5215L50.7318 15.8354C51.5167 12.1727 49.1838 8.56728 45.5211 7.78242Z" fill="#0F7863"/>
<path d="M13.444 28.2726C14.565 28.8775 15.8082 29.2198 17.0801 29.2736C18.1175 29.2736 18.5774 29.0057 18.5774 28.4334C18.5774 27.8611 18.2116 27.6103 16.7721 27.068C13.7777 25.9427 12.8986 24.2365 12.9222 22.6953C12.9222 19.8466 15.2172 17.7267 18.8276 17.7246C20.1807 17.7058 21.523 17.9686 22.7696 18.4962L21.9589 22.0222C21.0658 21.5785 20.089 21.3294 19.0928 21.2913C18.1945 21.2913 17.7047 21.5978 17.7047 22.1616C17.7047 22.6503 18.1325 22.9461 19.7259 23.5591C22.4231 24.5987 23.362 26.1184 23.362 28.0347C23.362 30.8855 21.2039 32.8554 17.1037 32.8575C15.3113 32.8575 13.5959 32.4588 12.5928 31.893L13.444 28.2726Z" fill="#F0F1F1"/>
<path d="M25.6204 22.8932C25.6204 21.0735 25.5581 19.4425 25.498 18.028H29.8907L30.1289 19.8112H30.1868C31.1052 18.4931 32.5473 17.7258 34.3884 17.7236C37.5493 17.7236 39.9677 20.7456 39.9677 25.18C39.9677 30.4439 36.8798 32.8957 33.9056 32.8957C32.425 32.8957 31.2876 32.2528 30.7812 31.5326H30.7211V38.4082H25.6311L25.6204 22.8932ZM30.7125 26.5367C30.7064 26.8727 30.7498 27.2078 30.8413 27.5312C30.9368 27.9176 31.1563 28.2621 31.4663 28.5121C31.7763 28.7621 32.1597 28.9039 32.558 28.9157C34.0043 28.9157 34.8198 27.4326 34.8176 25.3558C34.8176 23.1096 34.0408 21.7787 32.6095 21.7808C32.1848 21.7919 31.7764 21.9463 31.4507 22.2187C31.125 22.4911 30.9011 22.8655 30.8155 23.2811C30.7327 23.5355 30.6942 23.8023 30.7018 24.0698L30.7125 26.5367Z" fill="#F0F1F1"/>
<path d="M56.614 33.6436C57.3951 34.0631 58.261 34.3008 59.1468 34.339C59.8789 34.339 60.19 34.156 60.19 33.757C60.19 33.3581 59.9375 33.186 58.9309 32.8127C56.8446 32.0294 56.2333 30.8471 56.2443 29.7783C56.2443 27.8055 57.8475 26.3414 60.3657 26.3414C61.3081 26.3293 62.2428 26.5125 63.1109 26.8794L62.5545 29.3245C61.9322 29.0186 61.2526 28.8465 60.5597 28.8194C59.9338 28.8194 59.5897 29.028 59.5897 29.4196C59.5897 29.8113 59.8789 29.9614 60.9989 30.3896C62.8766 31.1217 63.5245 32.1648 63.5355 33.4898C63.5355 35.4664 62.0274 36.828 59.1688 36.828C58.0839 36.8542 57.0081 36.6248 56.0283 36.1581L56.614 33.6436Z" fill="#474747"/>
<path d="M69.0552 23.7207V26.5647H71.1232V29.1269H69.0552V32.3589C69.0552 33.5338 69.3993 33.962 70.1789 33.962C70.4599 33.963 70.7405 33.9385 71.0171 33.8888V36.5974C70.3329 36.7771 69.627 36.8609 68.9198 36.8463C68.042 36.882 67.1836 36.5823 66.5187 36.0081C65.9038 35.4115 65.5743 34.4708 65.5743 32.8969V29.1269H64.3555V26.5647H65.578V24.5223L69.0552 23.7207Z" fill="#474747"/>
<path d="M82.0345 33.27C82.0345 34.584 82.0784 35.7334 82.1187 36.6411H79.0661L78.9013 35.3893H78.8391C78.5243 35.855 78.0968 36.2335 77.5963 36.4895C77.0958 36.7455 76.5387 36.8707 75.9768 36.8534C73.8026 36.8534 72.6387 35.4076 72.6387 32.5233V26.5645H76.1854V32.0219C76.1854 33.2847 76.5515 33.9947 77.3457 33.9947C77.571 33.9926 77.7902 33.9212 77.9736 33.7903C78.1569 33.6593 78.2955 33.4751 78.3706 33.2627C78.4587 33.0623 78.5 32.8445 78.4914 32.6258V26.5645H82.0345V33.27Z" fill="#474747"/>
<path d="M93.7024 22.1724V33.4276C93.7024 34.6245 93.7427 35.8397 93.783 36.6266H90.6681L90.5144 35.3456H90.4741C90.1834 35.8131 89.7753 36.1962 89.2905 36.457C88.8056 36.7177 88.2609 36.8469 87.7106 36.8316C85.3644 36.8316 83.7393 34.6355 83.7393 31.6304C83.7393 28.2081 85.6938 26.3267 87.89 26.3267C88.9624 26.3267 89.7457 26.6928 90.1227 27.2894H90.163V22.1724H93.7024ZM90.163 30.752C90.1675 30.5855 90.1577 30.419 90.1337 30.2542C90.0914 29.9482 89.9422 29.6671 89.7123 29.4607C89.4825 29.2543 89.187 29.136 88.8782 29.1268C87.7802 29.1268 87.297 30.2505 87.297 31.6231C87.297 33.2519 87.9815 34.0279 88.8673 34.0279C89.1545 34.0289 89.433 33.9296 89.6548 33.7471C89.8767 33.5647 90.0279 33.3106 90.0825 33.0286C90.1341 32.813 90.1574 32.5915 90.152 32.3698L90.163 30.752Z" fill="#474747"/>
<path d="M98.7612 32.8966C98.8564 33.7311 99.9032 34.2106 101.181 34.2106C102.048 34.22 102.912 34.0965 103.743 33.8446L104.186 36.2493C103.05 36.6572 101.849 36.8545 100.643 36.8313C97.2862 36.8313 95.3975 34.9353 95.3975 31.7472C95.3975 29.0643 97.0336 26.3447 100.35 26.3447C103.296 26.3447 104.713 28.475 104.713 31.4288C104.72 31.9198 104.679 32.4102 104.588 32.8929L98.7612 32.8966ZM101.459 30.4845C101.459 29.7817 101.217 28.7129 100.159 28.7129C99.1016 28.7129 98.7722 29.7744 98.7283 30.4845H101.459Z" fill="#474747"/>
<path d="M106.303 29.9173C106.303 28.6582 106.263 27.5089 106.223 26.5462H109.272L109.436 27.7943H109.499C109.823 27.3369 110.254 26.9649 110.754 26.7099C111.253 26.455 111.807 26.3247 112.368 26.3302C114.652 26.3302 115.75 27.9774 115.75 30.5615V36.6302H112.203V30.9202C112.203 29.899 111.87 29.2218 111.061 29.2218C110.818 29.2241 110.581 29.3026 110.384 29.4463C110.187 29.5901 110.04 29.7919 109.963 30.0234C109.872 30.2805 109.831 30.5526 109.843 30.825V36.6411H106.303V29.9173Z" fill="#474747"/>
<path d="M121.699 23.7207V26.5647H123.763V29.1269H121.699V32.3589C121.699 33.5338 122.039 33.962 122.823 33.962C123.1 33.9614 123.377 33.9357 123.65 33.8852V36.5938C122.967 36.7735 122.262 36.8573 121.556 36.8427C120.677 36.8785 119.818 36.5789 119.151 36.0045C118.537 35.4078 118.211 34.4672 118.211 32.8933V29.1269H116.988V26.5647H118.211V24.5223L121.699 23.7207Z" fill="#474747"/>
<path d="M129.142 29.9177C129.142 28.6585 129.098 27.5275 129.058 26.5466H132.11L132.275 27.7837H132.315C132.644 27.3183 133.085 26.9425 133.596 26.6906C134.108 26.4388 134.674 26.3188 135.243 26.3416C137.44 26.3416 139.112 28.4389 139.112 31.5099C139.112 35.1701 136.96 36.8465 134.896 36.8465C134.486 36.8661 134.077 36.7912 133.7 36.6274C133.324 36.4636 132.99 36.2155 132.725 35.9022H132.685V40.6605H129.142V29.9177ZM132.678 32.4505C132.673 32.6842 132.702 32.9173 132.765 33.1423C132.832 33.4114 132.985 33.651 133.202 33.8243C133.418 33.9976 133.685 34.095 133.962 34.1013C134.969 34.1013 135.533 33.0728 135.533 31.638C135.533 30.0824 134.998 29.16 134.003 29.16C133.707 29.1672 133.423 29.2742 133.196 29.4637C132.97 29.6531 132.814 29.9138 132.754 30.2032C132.698 30.3793 132.672 30.5637 132.678 30.7485V32.4505Z" fill="#474747"/>
<path d="M146.262 36.6414L146.076 35.73H146.013C145.683 36.101 145.273 36.3924 144.814 36.5826C144.355 36.7728 143.859 36.8567 143.363 36.8281C142.944 36.8417 142.527 36.7694 142.137 36.6157C141.747 36.4619 141.393 36.2299 141.096 35.934C140.799 35.6381 140.565 35.2844 140.41 34.895C140.255 34.5055 140.181 34.0883 140.194 33.6693C140.194 30.9607 142.635 29.7967 145.721 29.7894V29.6686C145.721 29.2111 145.355 28.7682 144.158 28.7682C143.226 28.7799 142.312 29.0253 141.5 29.4819L140.885 27.2089C142.116 26.6023 143.474 26.2986 144.846 26.3232C148.33 26.3232 149.275 28.4278 149.275 30.774V34.2073C149.26 35.0157 149.314 35.8238 149.436 36.6231L146.262 36.6414ZM145.83 31.9782C144.498 31.9782 143.634 32.3918 143.634 33.3289C143.62 33.4647 143.636 33.602 143.68 33.7313C143.724 33.8605 143.796 33.9786 143.89 34.0774C143.985 34.1762 144.099 34.2534 144.226 34.3037C144.353 34.3539 144.49 34.376 144.626 34.3684C144.883 34.365 145.133 34.2832 145.342 34.1341C145.552 33.985 145.71 33.7756 145.798 33.5338C145.835 33.3757 145.851 33.2131 145.845 33.0507L145.83 31.9782Z" fill="#474747"/>
<path d="M160.912 22.1724V33.4276C160.912 34.6245 160.952 35.8397 160.992 36.6266H157.878L157.724 35.3456H157.691C157.401 35.8128 156.993 36.1958 156.509 36.4565C156.025 36.7173 155.481 36.8466 154.931 36.8316C152.581 36.8316 150.956 34.6355 150.956 31.6304C150.956 28.2081 152.911 26.3267 155.107 26.3267C156.179 26.3267 156.963 26.6928 157.34 27.2894H157.383V22.1724H160.912ZM157.376 30.752C157.381 30.5854 157.37 30.4186 157.343 30.2542C157.307 29.9453 157.162 29.6596 156.934 29.4483C156.705 29.2369 156.409 29.1139 156.099 29.1012C155.001 29.1012 154.517 30.2249 154.517 31.5975C154.517 33.2263 155.202 34.0023 156.088 34.0023C156.375 34.0032 156.653 33.9039 156.875 33.7215C157.097 33.5391 157.248 33.285 157.303 33.003C157.356 32.7875 157.38 32.566 157.376 32.3442V30.752Z" fill="#474747"/>
<path d="M172.544 22.1724V33.4276C172.544 34.6245 172.584 35.8397 172.625 36.6266H169.51L169.356 35.3456H169.316C169.026 35.8128 168.618 36.1958 168.134 36.4565C167.65 36.7173 167.106 36.8466 166.556 36.8316C164.206 36.8316 162.581 34.6355 162.581 31.6304C162.581 28.2081 164.539 26.3267 166.732 26.3267C167.804 26.3267 168.588 26.6928 168.965 27.2894H169.008V22.1724H172.544ZM169.008 30.752C169.014 30.5854 169.003 30.4186 168.976 30.2542C168.939 29.9453 168.794 29.6596 168.566 29.4483C168.338 29.2369 168.042 29.1139 167.731 29.1012C166.633 29.1012 166.15 30.2249 166.15 31.5975C166.15 33.2263 166.834 34.0023 167.72 34.0023C168.007 34.0032 168.286 33.9039 168.508 33.7215C168.729 33.5391 168.881 33.285 168.935 33.003C168.988 32.7875 169.013 32.566 169.008 32.3442V30.752Z" fill="#474747"/>
<path d="M177.62 26.5645L178.718 31.2459C178.842 31.7913 178.989 32.4574 179.084 32.9589H179.146C179.252 32.4465 179.355 31.7803 179.45 31.2679L180.31 26.5645H183.999L181.803 33.5592C180.617 37.0108 179.724 38.603 178.648 39.6425C177.8 40.4585 176.717 40.9873 175.552 41.1542L174.746 38.1455C175.19 38.0548 175.618 37.8994 176.016 37.6843C176.449 37.4649 176.82 37.1417 177.096 36.7436C177.198 36.6169 177.259 36.4626 177.272 36.3007C177.265 36.1315 177.223 35.9656 177.147 35.8139L173.718 26.5645H177.62Z" fill="#474747"/>
</svg>
